<svg data-v-0dd9719b="" version="1.0" xmlns="http://www.w3.org/2000/svg" xmlns:xlink="http://www.w3.org/1999/xlink" width="100%" height="100%" viewBox="0 0 340.000000 250.000000"  color-interpolation-filters="sRGB" >   <g data-v-0dd9719b="" fill="#ffffff" class="iconlinesvg-g iconlinesvg" transform="translate(80.36105054616928,101.38186645507812)"><g class="tp-name" transform="translate(0,0)"><g transform="translate(0, 0)"><g data-gra="path-name" fill="#ffffff" transform="scale(1)"><path d="M13.59-23.31L13.59-18.47L9.51-18.47L9.51 0L3.53 0L3.53-18.47L0.88-18.47L0.88-23.31L3.53-23.31L3.53-24.49Q3.53-28.78 5.97-30.80Q8.42-32.82 13.34-32.69L13.34-32.69L13.34-27.73Q11.19-27.77 10.35-27.01Q9.51-26.26 9.51-24.28L9.51-24.28L9.51-23.31L13.59-23.31Z" transform="translate(-0.8835904628330997, 32.70027225476446)"></path></g></g><g transform="translate(16, 0)"><g data-gra="path-name" fill="#ffffff" transform="scale(1)"><path d="M13.25 0.38Q9.89 0.38 7.19-1.12Q4.50-2.61 2.97-5.34Q1.43-8.08 1.43-11.65L1.43-11.65Q1.43-15.23 3.01-17.97Q4.59-20.70 7.32-22.19Q10.06-23.69 13.42-23.69L13.42-23.69Q16.79-23.69 19.52-22.19Q22.26-20.70 23.84-17.97Q25.41-15.23 25.41-11.65L25.41-11.65Q25.41-8.08 23.79-5.34Q22.17-2.61 19.42-1.12Q16.66 0.38 13.25 0.38L13.25 0.38ZM13.25-4.75Q14.85-4.75 16.26-5.53Q17.67-6.31 18.51-7.87Q19.35-9.42 19.35-11.65L19.35-11.65Q19.35-14.98 17.61-16.77Q15.86-18.56 13.34-18.56L13.34-18.56Q10.81-18.56 9.11-16.77Q7.41-14.98 7.41-11.65L7.41-11.65Q7.41-8.33 9.07-6.54Q10.73-4.75 13.25-4.75L13.25-4.75Z" transform="translate(-1.4305750350631141, 32.70027225476446)"></path></g></g><g transform="translate(43, 0)"><g data-gra="path-name" fill="#ffffff" transform="scale(1)"><path d="M8.79-19.69Q9.93-21.54 11.76-22.59Q13.59-23.65 15.95-23.65L15.95-23.65L15.95-17.46L14.39-17.46Q11.61-17.46 10.20-16.16Q8.79-14.85 8.79-11.61L8.79-11.61L8.79 0L2.90 0L2.90-23.31L8.79-23.31L8.79-19.69Z" transform="translate(-2.9032258064516134, 32.70027225476446)"></path></g></g><g transform="translate(60, 0)"><g data-gra="path-name" fill="#ffffff" transform="scale(1)"><path d="M1.39-11.65Q1.39-15.27 2.86-17.99Q4.33-20.70 6.94-22.19Q9.55-23.69 12.92-23.69L12.92-23.69Q17.25-23.69 20.09-21.52Q22.93-19.35 23.90-15.44L23.90-15.44L17.55-15.44Q17.04-16.96 15.84-17.82Q14.64-18.68 12.88-18.68L12.88-18.68Q10.35-18.68 8.88-16.85Q7.41-15.02 7.41-11.65L7.41-11.65Q7.41-8.33 8.88-6.50Q10.35-4.67 12.88-4.67L12.88-4.67Q16.45-4.67 17.55-7.87L17.55-7.87L23.90-7.87Q22.93-4.08 20.07-1.85Q17.21 0.38 12.92 0.38L12.92 0.38Q9.55 0.38 6.94-1.12Q4.33-2.61 2.86-5.32Q1.39-8.04 1.39-11.65L1.39-11.65Z" transform="translate(-1.3884992987377278, 32.70027225476446)"></path></g></g><g transform="translate(86, 0)"><g data-gra="path-name" fill="#ffffff" transform="scale(1)"><path d="M1.39-11.74Q1.39-15.27 2.80-18.01Q4.21-20.74 6.63-22.22Q9.05-23.69 12.03-23.69L12.03-23.69Q14.64-23.69 16.60-22.64Q18.56-21.58 19.73-19.99L19.73-19.99L19.73-23.31L25.67-23.31L25.67 0L19.73 0L19.73-3.41Q18.60-1.77 16.60-0.69Q14.60 0.38 11.99 0.38L11.99 0.38Q9.05 0.38 6.63-1.14Q4.21-2.65 2.80-5.41Q1.39-8.16 1.39-11.74L1.39-11.74ZM19.73-11.65Q19.73-13.80 18.89-15.34Q18.05-16.87 16.62-17.69Q15.19-18.51 13.55-18.51L13.55-18.51Q11.91-18.51 10.52-17.71Q9.13-16.91 8.27-15.38Q7.41-13.84 7.41-11.74L7.41-11.74Q7.41-9.64 8.27-8.06Q9.13-6.48 10.54-5.64Q11.95-4.80 13.55-4.80L13.55-4.80Q15.19-4.80 16.62-5.62Q18.05-6.44 18.89-7.97Q19.73-9.51 19.73-11.65L19.73-11.65Z" transform="translate(-1.3884992987377278, 32.70027225476446)"></path></g></g><g transform="translate(114, 2.0991607561857286)"><g><g class="imagesvg"><g><rect fill="#ffffff" fill-opacity="0" stroke-width="2" x="0" y="0" width="20.616728223163825" height="28.880632369321468" class="image-rect"></rect> <svg filter="url(#colors4568464996)" x="0" y="0" width="20.616728223163825" height="28.880632369321468" filtersec="colorsf1608128523" class="image-svg-svg primary" style="overflow: visible;"><svg xmlns="http://www.w3.org/2000/svg" viewBox="0 0 109.22000122070312 153"><title>S</title><g id="4cfe8ce6-3bea-45f9-b233-324b8ef18536" data-name="圖層 2"><g id="d4e8724c-dd55-4a24-851d-e7af4772c70d" data-name="栝鍣 2"><path d="M76.12,44.86,109.22,0H37.69C16.46,0,0,15.15,0,36.81,0,51.94,8.4,62.66,20.71,69.18c.22.09.4.23.62.33a37.5,37.5,0,0,0,17.14,4.16L54,74.14l.19-.14L54,74.5,40.09,94.91l-9,13.9L1.54,153H69.41c21.26,0,38.46-19.58,38.46-41.24,0-15.23-8.52-29.24-21-35.73-4.89-2.55-10.4-5-16.24-5H69.32L56.9,70.58l1.31-1.34Z"></path></g></g></svg></svg> <defs><filter id="colors4568464996"><feColorMatrix type="matrix" values="0 0 0 0 0.99609375  0 0 0 0 0.99609375  0 0 0 0 0.99609375  0 0 0 1 0" class="icon-fecolormatrix"></feColorMatrix></filter> <filter id="colorsf1608128523"><feColorMatrix type="matrix" values="0 0 0 0 0.99609375  0 0 0 0 0.99609375  0 0 0 0 0.99609375  0 0 0 1 0" class="icon-fecolormatrix"></feColorMatrix></filter> <filter id="colorsb6511677482"><feColorMatrix type="matrix" values="0 0 0 0 0  0 0 0 0 0  0 0 0 0 0  0 0 0 1 0" class="icon-fecolormatrix"></feColorMatrix></filter></defs></g></g></g></g><g transform="translate(138, 0)"><g data-gra="path-name" fill="#ffffff" transform="scale(1)"><path d="M14.98-18.47L9.76-18.47L9.76-7.19Q9.76-6.02 10.33-5.49Q10.90-4.96 12.24-4.96L12.24-4.96L14.98-4.96L14.98 0L11.28 0Q3.83 0 3.83-7.24L3.83-7.24L3.83-18.47L1.05-18.47L1.05-23.31L3.83-23.31L3.83-29.07L9.76-29.07L9.76-23.31L14.98-23.31L14.98-18.47Z" transform="translate(-1.0518934081346425, 32.70027225476446)"></path></g></g><g transform="translate(155, 0)"><g data-gra="path-name" fill="#ffffff" transform="scale(1)"><path d="M1.39-11.74Q1.39-15.27 2.80-18.01Q4.21-20.74 6.63-22.22Q9.05-23.69 12.03-23.69L12.03-23.69Q14.64-23.69 16.60-22.64Q18.56-21.58 19.73-19.99L19.73-19.99L19.73-23.31L25.67-23.31L25.67 0L19.73 0L19.73-3.41Q18.60-1.77 16.60-0.69Q14.60 0.38 11.99 0.38L11.99 0.38Q9.05 0.38 6.63-1.14Q4.21-2.65 2.80-5.41Q1.39-8.16 1.39-11.74L1.39-11.74ZM19.73-11.65Q19.73-13.80 18.89-15.34Q18.05-16.87 16.62-17.69Q15.19-18.51 13.55-18.51L13.55-18.51Q11.91-18.51 10.52-17.71Q9.13-16.91 8.27-15.38Q7.41-13.84 7.41-11.74L7.41-11.74Q7.41-9.64 8.27-8.06Q9.13-6.48 10.54-5.64Q11.95-4.80 13.55-4.80L13.55-4.80Q15.19-4.80 16.62-5.62Q18.05-6.44 18.89-7.97Q19.73-9.51 19.73-11.65L19.73-11.65Z" transform="translate(-1.3884992987377278, 32.70027225476446)"></path></g></g></g> <g data-gra="path-slogan" fill-rule="" class="tp-slogan" fill="#ffffff" transform="translate(5,39.077857971191406)"><rect x="0" height="1" y="3.580000400543213" width="13.117538452148438"></rect> <rect height="1" y="3.580000400543213" width="13.117538452148438" x="156.16754150390625"></rect> <g transform="translate(16.117538452148438,0)"><g transform="scale(1)"><path d="M1.08-7.87L1.08 0L2.08 0L2.08-2.50L3.43-4.09L5.78 0L6.90 0L4.06-4.87L6.52-7.87L5.39-7.87L2.11-3.92L2.08-3.92L2.08-7.87ZM8.03-7.87L8.03 0L8.98 0L8.98-4.12C8.98-4.53 8.96-4.95 8.93-5.36C8.91-5.77 8.88-6.18 8.84-6.58L8.89-6.58L9.74-4.96L12.60 0L13.63 0L13.63-7.87L12.68-7.87L12.68-3.80C12.68-3.39 12.70-2.97 12.73-2.54C12.75-2.11 12.78-1.70 12.80-1.30L12.76-1.30L11.90-2.93L9.06-7.87ZM18.70 0.14C19.19 0.14 19.65 0.05 20.06-0.14C20.47-0.34 20.83-0.61 21.13-0.97C21.43-1.32 21.66-1.75 21.82-2.26C21.99-2.77 22.07-3.34 22.07-3.97C22.07-4.60 21.99-5.16 21.82-5.66C21.66-6.16 21.43-6.58 21.13-6.93C20.83-7.28 20.47-7.55 20.06-7.73C19.65-7.92 19.19-8.02 18.70-8.02C18.20-8.02 17.75-7.92 17.33-7.74C16.92-7.56 16.57-7.29 16.27-6.94C15.98-6.59 15.75-6.17 15.58-5.67C15.42-5.17 15.34-4.60 15.34-3.97C15.34-3.34 15.42-2.77 15.58-2.26C15.75-1.75 15.98-1.32 16.27-0.97C16.57-0.61 16.92-0.34 17.33-0.14C17.75 0.05 18.20 0.14 18.70 0.14ZM18.70-0.73C18.34-0.73 18.03-0.81 17.74-0.96C17.46-1.11 17.21-1.33 17.01-1.61C16.81-1.90 16.65-2.24 16.54-2.63C16.42-3.03 16.37-3.48 16.37-3.97C16.37-4.46 16.42-4.90 16.54-5.29C16.65-5.68 16.81-6.02 17.01-6.29C17.21-6.56 17.46-6.77 17.74-6.92C18.03-7.07 18.34-7.14 18.70-7.14C19.05-7.14 19.37-7.07 19.65-6.92C19.93-6.77 20.18-6.56 20.38-6.29C20.59-6.02 20.74-5.68 20.86-5.29C20.97-4.90 21.02-4.46 21.02-3.97C21.02-3.48 20.97-3.03 20.86-2.63C20.74-2.24 20.59-1.90 20.38-1.61C20.18-1.33 19.93-1.11 19.65-0.96C19.37-0.81 19.05-0.73 18.70-0.73ZM22.88-7.87L24.55 0L25.74 0L26.90-4.74C26.97-5.04 27.03-5.34 27.10-5.63C27.17-5.93 27.24-6.22 27.30-6.53L27.35-6.53C27.41-6.22 27.47-5.93 27.53-5.63C27.59-5.34 27.66-5.04 27.73-4.74L28.92 0L30.12 0L31.75-7.87L30.79-7.87L29.96-3.59C29.88-3.16 29.81-2.74 29.74-2.32C29.66-1.90 29.59-1.48 29.52-1.04L29.47-1.04C29.38-1.48 29.28-1.90 29.18-2.33C29.09-2.75 28.99-3.17 28.90-3.59L27.80-7.87L26.89-7.87L25.80-3.59C25.71-3.16 25.62-2.74 25.52-2.32C25.43-1.90 25.34-1.48 25.25-1.04L25.20-1.04C25.13-1.48 25.05-1.90 24.97-2.32C24.89-2.73 24.82-3.16 24.74-3.59L23.92-7.87ZM34.74-7.87L36.41 0L37.60 0L38.76-4.74C38.82-5.04 38.89-5.34 38.96-5.63C39.03-5.93 39.09-6.22 39.16-6.53L39.20-6.53C39.27-6.22 39.33-5.93 39.39-5.63C39.45-5.34 39.52-5.04 39.59-4.74L40.78 0L41.98 0L43.61-7.87L42.65-7.87L41.82-3.59C41.74-3.16 41.66-2.74 41.59-2.32C41.52-1.90 41.45-1.48 41.38-1.04L41.33-1.04C41.23-1.48 41.14-1.90 41.04-2.33C40.94-2.75 40.85-3.17 40.75-3.59L39.66-7.87L38.75-7.87L37.66-3.59C37.57-3.16 37.48-2.74 37.38-2.32C37.28-1.90 37.19-1.48 37.10-1.04L37.06-1.04C36.98-1.48 36.91-1.90 36.83-2.32C36.75-2.73 36.67-3.16 36.60-3.59L35.77-7.87ZM44.98-7.87L44.98 0L49.63 0L49.63-0.85L45.97-0.85L45.97-3.71L48.96-3.71L48.96-4.56L45.97-4.56L45.97-7.03L49.51-7.03L49.51-7.87ZM54.65-3.20L52.28-3.20L52.66-4.40C52.80-4.84 52.94-5.28 53.06-5.72C53.19-6.15 53.32-6.60 53.44-7.06L53.48-7.06C53.61-6.60 53.74-6.15 53.87-5.72C54.00-5.28 54.13-4.84 54.28-4.40ZM54.90-2.40L55.64 0L56.71 0L54.05-7.87L52.92-7.87L50.26 0L51.28 0L52.03-2.40ZM58.98-7.03L58.98 0L59.99 0L59.99-7.03L62.36-7.03L62.36-7.87L56.60-7.87L56.60-7.03ZM63.78-7.87L63.78 0L64.78 0L64.78-3.71L68.44-3.71L68.44 0L69.44 0L69.44-7.87L68.44-7.87L68.44-4.57L64.78-4.57L64.78-7.87ZM71.60-7.87L71.60 0L76.26 0L76.26-0.85L72.60-0.85L72.60-3.71L75.59-3.71L75.59-4.56L72.60-4.56L72.60-7.03L76.14-7.03L76.14-7.87ZM78.92-4.14L78.92-7.07L80.24-7.07C80.86-7.07 81.33-6.96 81.66-6.76C81.99-6.55 82.15-6.18 82.15-5.66C82.15-5.15 81.99-4.77 81.66-4.52C81.33-4.27 80.86-4.14 80.24-4.14ZM82.25 0L83.38 0L81.38-3.43C81.92-3.57 82.35-3.82 82.67-4.19C82.99-4.56 83.15-5.05 83.15-5.66C83.15-6.07 83.08-6.42 82.94-6.70C82.81-6.98 82.62-7.20 82.37-7.38C82.13-7.56 81.84-7.68 81.50-7.76C81.16-7.83 80.79-7.87 80.39-7.87L77.93-7.87L77.93 0L78.92 0L78.92-3.32L80.35-3.32ZM87.32-7.87L87.32 0L88.32 0L88.32-7.87ZM90.48-7.87L90.48 0L91.43 0L91.43-4.12C91.43-4.53 91.41-4.95 91.39-5.36C91.36-5.77 91.33-6.18 91.30-6.58L91.34-6.58L92.20-4.96L95.05 0L96.08 0L96.08-7.87L95.14-7.87L95.14-3.80C95.14-3.39 95.15-2.97 95.18-2.54C95.21-2.11 95.23-1.70 95.26-1.30L95.21-1.30L94.36-2.93L91.51-7.87ZM104.02-3.20L101.65-3.20L102.02-4.40C102.17-4.84 102.30-5.28 102.43-5.72C102.56-6.15 102.68-6.60 102.80-7.06L102.85-7.06C102.98-6.60 103.11-6.15 103.24-5.72C103.36-5.28 103.50-4.84 103.64-4.40ZM104.27-2.40L105.01 0L106.08 0L103.42-7.87L102.29-7.87L99.62 0L100.64 0L101.40-2.40ZM109.16-3.94C109.16-3.30 109.25-2.72 109.42-2.21C109.59-1.71 109.83-1.28 110.14-0.93C110.45-0.58 110.81-0.32 111.23-0.13C111.65 0.05 112.11 0.14 112.61 0.14C113.11 0.14 113.56 0.04 113.95-0.16C114.34-0.36 114.70-0.64 115.01-1.00L114.44-1.61C114.19-1.33 113.92-1.11 113.63-0.96C113.35-0.81 113.02-0.73 112.63-0.73C112.26-0.73 111.92-0.81 111.62-0.96C111.32-1.11 111.06-1.33 110.86-1.61C110.65-1.89 110.49-2.23 110.37-2.62C110.25-3.02 110.20-3.46 110.20-3.96C110.20-4.45 110.26-4.89 110.38-5.28C110.50-5.67 110.66-6.01 110.88-6.28C111.10-6.56 111.36-6.77 111.66-6.92C111.96-7.07 112.30-7.14 112.68-7.14C113.02-7.14 113.31-7.07 113.56-6.94C113.81-6.81 114.04-6.63 114.25-6.41L114.82-7.04C114.58-7.30 114.29-7.53 113.93-7.72C113.57-7.92 113.15-8.02 112.67-8.02C112.16-8.02 111.70-7.92 111.27-7.73C110.84-7.55 110.47-7.28 110.16-6.92C109.85-6.57 109.60-6.14 109.43-5.64C109.25-5.14 109.16-4.57 109.16-3.94ZM116.47-7.87L116.47 0L120.91 0L120.91-0.85L117.47-0.85L117.47-7.87ZM122.30-7.87L122.30 0L123.30 0L123.30-7.87ZM125.00-3.94C125.00-3.30 125.09-2.72 125.26-2.21C125.43-1.71 125.67-1.28 125.98-0.93C126.29-0.58 126.65-0.32 127.07-0.13C127.49 0.05 127.95 0.14 128.45 0.14C128.95 0.14 129.40 0.04 129.79-0.16C130.18-0.36 130.54-0.64 130.85-1.00L130.28-1.61C130.03-1.33 129.76-1.11 129.47-0.96C129.19-0.81 128.86-0.73 128.47-0.73C128.10-0.73 127.76-0.81 127.46-0.96C127.16-1.11 126.90-1.33 126.70-1.61C126.49-1.89 126.33-2.23 126.21-2.62C126.09-3.02 126.04-3.46 126.04-3.96C126.04-4.45 126.10-4.89 126.22-5.28C126.34-5.67 126.50-6.01 126.72-6.28C126.94-6.56 127.20-6.77 127.50-6.92C127.80-7.07 128.14-7.14 128.52-7.14C128.86-7.14 129.15-7.07 129.40-6.94C129.65-6.81 129.88-6.63 130.09-6.41L130.66-7.04C130.42-7.30 130.13-7.53 129.77-7.72C129.41-7.92 128.99-8.02 128.51-8.02C128.00-8.02 127.54-7.92 127.11-7.73C126.68-7.55 126.31-7.28 126.00-6.92C125.69-6.57 125.44-6.14 125.27-5.64C125.09-5.14 125.00-4.57 125.00-3.94ZM132.31-7.87L132.31 0L133.31 0L133.31-2.50L134.66-4.09L137.02 0L138.13 0L135.29-4.87L137.75-7.87L136.62-7.87L133.34-3.92L133.31-3.92L133.31-7.87Z" transform="translate(-1.08, 8.016)"></path></g></g></g></g><defs v-gra="od"></defs></svg>